<svg version="1.1" id="Calque_1" xmlns="http://www.w3.org/2000/svg"
  xmlns:xlink="http://www.w3.org/1999/xlink" x="0px" y="0px"
  viewBox="0 0 305.6 69.2" style="enable-background:new 0 0 305.6 69.2;" xml:space="preserve">
<style type="text/css">
	.st0{fill:#FFFFFF;}
</style>
<g>
	<g>
		<path class="st0" d="M30.4,26.5l-3.2-7.8c-0.2-0.4-0.3-0.7-0.4-1s-0.2-0.6-0.2-0.8c-0.1-0.3-0.1-0.6-0.1-0.8
			c0,0.2-0.1,0.5-0.2,0.8c0,0.2-0.1,0.5-0.2,0.8s-0.2,0.6-0.4,1l-3.3,7.8L19,34.2l-1.7,4.2c-0.2,0.5-0.5,0.9-0.9,1.3s-0.8,0.8-1.3,1
			s-1,0.5-1.5,0.7s-1.1,0.2-1.6,0.2H6.5L22.8,4.4h7.3l16.3,37.2h-5.5c-0.6,0-1.1-0.1-1.7-0.2s-1-0.4-1.5-0.7s-0.9-0.6-1.2-1
			s-0.7-0.9-0.9-1.4l-1.8-4.1C33.9,34.2,30.4,26.5,30.4,26.5z"/>
		<path class="st0" d="M49.2,41.6V10.8h7V35h12.2v6.6H49.2z"/>
		<path class="st0" d="M80.6,41.6h-7V10.8H86c1.4,0,2.8,0.3,4.1,0.9c1.3,0.6,2.4,1.4,3.3,2.3s1.7,2.1,2.2,3.4s0.8,2.7,0.8,4.1
			s-0.3,2.8-0.8,4.1c-0.5,1.3-1.3,2.4-2.2,3.4s-2,1.8-3.3,2.3s-2.6,0.9-4.1,0.9h-5.4V41.6z M86,25.2c0.4,0,0.8-0.1,1.2-0.3
			c0.4-0.2,0.8-0.5,1.1-0.8s0.6-0.7,0.7-1.2c0.2-0.4,0.3-0.9,0.3-1.3s-0.1-0.9-0.3-1.3c-0.2-0.4-0.4-0.8-0.7-1.2s-0.7-0.6-1.1-0.8
			C86.8,18.1,86.4,18,86,18h-5.4v7.3L86,25.2L86,25.2z"/>
		<path class="st0" d="M110,41.6h-7.1V10.8h7.1V41.6z"/>
		<path class="st0" d="M127.5,17.6c-0.4,0-0.7,0-1.1,0.1c-0.3,0.1-0.7,0.2-0.9,0.3c-0.3,0.1-0.5,0.3-0.7,0.5s-0.2,0.5-0.2,0.8
			c0,0.5,0.1,0.8,0.3,1.1c0.2,0.3,0.6,0.5,1,0.7c0.5,0.2,1.1,0.4,1.7,0.6c0.6,0.2,1.5,0.5,2.4,0.8c1.2,0.4,2.3,0.9,3.3,1.5
			s1.8,1.3,2.5,2s1.2,1.7,1.6,2.6c0.4,1,0.6,2.1,0.6,3.3c0,1.5-0.3,2.9-0.9,4.1c-0.6,1.2-1.5,2.3-2.5,3.2s-2.3,1.6-3.6,2.1
			c-1.4,0.5-2.8,0.7-4.3,0.7c-1.3,0-2.5-0.2-3.6-0.6c-1.1-0.4-2.2-0.9-3.1-1.6s-1.8-1.5-2.5-2.4s-1.3-1.9-1.7-3l2.2-1.3
			c0.4-0.2,0.7-0.4,1.2-0.5c0.4-0.1,0.8-0.2,1.2-0.2c0.6,0,1.2,0.1,1.7,0.4s1,0.5,1.4,0.8c0.5,0.3,1,0.6,1.5,0.8s1.1,0.4,1.7,0.4
			c0.4,0,0.9-0.1,1.4-0.2c0.5-0.1,1-0.3,1.4-0.6s0.8-0.6,1.1-1s0.4-0.8,0.4-1.3s-0.1-0.9-0.4-1.2c-0.3-0.3-0.6-0.6-1.1-0.8
			c-0.4-0.2-1-0.4-1.6-0.6s-1.2-0.4-1.8-0.7c-1.1-0.4-2.1-0.8-3.1-1.3s-2-1.1-2.8-1.8c-0.8-0.7-1.5-1.5-2-2.5s-0.8-2.2-0.8-3.7
			c0-1.4,0.3-2.6,0.8-3.7s1.3-2,2.2-2.7c0.9-0.8,2-1.3,3.2-1.7s2.4-0.6,3.7-0.6c0.9,0,1.8,0.2,2.7,0.5s1.7,0.7,2.5,1.2
			s1.5,1.1,2.2,1.7c0.7,0.6,1.3,1.3,1.8,1.9l-2.2,1.8c-0.4,0.4-0.9,0.6-1.3,0.8c-0.5,0.2-1,0.2-1.6,0.2c-0.5,0-0.9-0.1-1.2-0.2
			s-0.7-0.2-1-0.4c-0.3-0.2-0.6-0.3-0.9-0.4C128,17.4,127.8,17.6,127.5,17.6L127.5,17.6z"/>
		<path class="st0" d="M152.6,17.6c-0.4,0-0.7,0-1.1,0.1c-0.4,0.1-0.7,0.2-0.9,0.3c-0.3,0.1-0.5,0.3-0.7,0.5s-0.2,0.5-0.2,0.8
			c0,0.5,0.1,0.8,0.3,1.1s0.6,0.5,1,0.7c0.5,0.2,1.1,0.4,1.7,0.6s1.5,0.5,2.4,0.8c1.2,0.4,2.3,0.9,3.3,1.5s1.8,1.3,2.5,2
			s1.2,1.7,1.6,2.6c0.4,1,0.6,2.1,0.6,3.3c0,1.5-0.3,2.9-0.9,4.1c-0.6,1.2-1.5,2.3-2.5,3.2s-2.3,1.6-3.6,2.1
			c-1.4,0.5-2.8,0.7-4.3,0.7c-1.3,0-2.5-0.2-3.6-0.6c-1.1-0.4-2.2-0.9-3.1-1.6s-1.8-1.5-2.5-2.4s-1.3-1.9-1.7-3l2.2-1.3
			c0.4-0.2,0.7-0.4,1.1-0.5c0.4-0.1,0.8-0.2,1.2-0.2c0.6,0,1.2,0.1,1.7,0.4s1,0.5,1.4,0.8s1,0.6,1.5,0.8s1.1,0.4,1.7,0.4
			c0.4,0,0.9-0.1,1.4-0.2c0.5-0.1,1-0.3,1.4-0.6s0.8-0.6,1.1-1s0.4-0.8,0.4-1.3s-0.1-0.9-0.4-1.2c-0.3-0.3-0.6-0.6-1.1-0.8
			c-0.4-0.2-1-0.4-1.6-0.6s-1.2-0.4-1.9-0.7c-1.1-0.4-2.1-0.8-3.1-1.3s-2-1.1-2.8-1.8c-0.8-0.7-1.5-1.5-2-2.5s-0.8-2.2-0.8-3.7
			c0-1.4,0.3-2.6,0.9-3.7s1.3-2,2.2-2.7c0.9-0.8,2-1.3,3.2-1.7s2.4-0.6,3.7-0.6c0.9,0,1.8,0.2,2.7,0.5s1.7,0.7,2.5,1.2
			s1.5,1.1,2.2,1.7c0.7,0.6,1.3,1.3,1.8,1.9l-2.2,1.8c-0.4,0.4-0.9,0.6-1.3,0.8c-0.5,0.2-1,0.2-1.6,0.2c-0.5,0-0.9-0.1-1.2-0.2
			s-0.7-0.2-1-0.4c-0.3-0.2-0.6-0.3-0.9-0.4C153.3,17.6,153,17.6,152.6,17.6L152.6,17.6z"/>
		<path class="st0" d="M176.4,41.6h-7.1V10.8h7.1V41.6z"/>
		<path class="st0" d="M220.4,41.6h-7V21.1l-7.8,20.5h-6.1l-7.9-20.5v20.5h-7V10.8h7.7c0.5,0,1,0.1,1.4,0.2c0.5,0.1,0.9,0.3,1.3,0.6
			c0.4,0.2,0.7,0.5,1,0.9s0.5,0.7,0.6,1.1L202,29c0.1,0.2,0.1,0.5,0.2,0.8c0.1,0.3,0.1,0.6,0.2,0.8c0.1,0.3,0.1,0.6,0.1,1
			c0-0.3,0.1-0.6,0.1-0.9s0.1-0.5,0.2-0.8c0.1-0.3,0.1-0.5,0.2-0.8l5.5-15.5c0.1-0.4,0.4-0.8,0.7-1.2c0.3-0.3,0.6-0.6,1-0.9
			s0.8-0.4,1.3-0.5s0.9-0.2,1.4-0.2h7.6L220.4,41.6L220.4,41.6L220.4,41.6z"/>
		<path class="st0" d="M262.3,41.6h-7V21.1l-7.8,20.5h-6l-7.9-20.5v20.5h-7V10.8h7.7c0.5,0,1,0.1,1.4,0.2c0.5,0.1,0.9,0.3,1.3,0.6
			c0.4,0.3,0.7,0.5,1,0.9s0.5,0.7,0.6,1.1L244,29c0.1,0.2,0.1,0.5,0.2,0.8c0.1,0.3,0.1,0.6,0.2,0.8c0.1,0.3,0.1,0.6,0.1,1
			c0-0.3,0.1-0.6,0.1-0.9s0.1-0.5,0.2-0.8c0.1-0.3,0.1-0.5,0.2-0.8l5.4-15.4c0.1-0.4,0.4-0.8,0.7-1.2c0.3-0.3,0.6-0.6,1-0.9
			s0.8-0.4,1.3-0.5s0.9-0.2,1.4-0.2h7.6L262.3,41.6L262.3,41.6L262.3,41.6z"/>
		<path class="st0" d="M267.8,26.2c0-1.5,0.2-2.8,0.6-4.2s0.9-2.6,1.6-3.7s1.5-2.2,2.5-3.2s2-1.8,3.2-2.4c1.2-0.7,2.4-1.2,3.8-1.6
			c1.4-0.4,2.8-0.6,4.2-0.6s2.9,0.2,4.2,0.6c1.4,0.4,2.6,0.9,3.8,1.6c1.2,0.7,2.2,1.5,3.2,2.4s1.8,2,2.5,3.2s1.2,2.4,1.6,3.7
			s0.6,2.7,0.6,4.2s-0.2,2.8-0.6,4.2s-0.9,2.6-1.6,3.8s-1.5,2.2-2.5,3.2s-2,1.8-3.2,2.5s-2.4,1.2-3.8,1.6c-1.4,0.4-2.7,0.6-4.2,0.6
			s-2.9-0.2-4.2-0.6c-1.3-0.4-2.6-0.9-3.8-1.6c-1.2-0.7-2.2-1.5-3.2-2.5s-1.8-2-2.5-3.2s-1.2-2.4-1.6-3.8S267.8,27.7,267.8,26.2z
			 M274.8,26.2c0,1.2,0.2,2.3,0.7,3.4s1.1,2,1.9,2.8c0.8,0.8,1.7,1.4,2.8,1.9s2.2,0.7,3.4,0.7s2.3-0.2,3.4-0.7s2-1.1,2.8-1.9
			c0.8-0.8,1.4-1.7,1.9-2.8s0.7-2.2,0.7-3.4s-0.2-2.3-0.7-3.4c-0.5-1-1.1-2-1.9-2.7c-0.8-0.8-1.7-1.4-2.8-1.9s-2.2-0.7-3.4-0.7
			s-2.3,0.2-3.4,0.7s-2,1.1-2.8,1.9s-1.4,1.7-1.9,2.7C275.1,23.9,274.8,25,274.8,26.2z"/>
	</g>
	<g>
		<path class="st0" d="M80,64.6V52h1.4v12.6H80z"/>
		<path class="st0" d="M94.7,61.8L91,55v9.6h-1.4V52H91l4.4,8.2l4.4-8.2h1.3v12.6h-1.4V55L96,61.8C96.1,61.8,94.7,61.8,94.7,61.8z"
			/>
		<path class="st0" d="M114.5,61.8l-3.7-6.8v9.6h-1.4V52h1.3l4.4,8.2l4.4-8.2h1.3v12.6h-1.4V55l-3.7,6.8
			C115.8,61.8,114.5,61.8,114.5,61.8z"/>
		<path class="st0" d="M134.8,51.8c3.6,0,6.3,2.9,6.3,6.5s-2.7,6.5-6.3,6.5s-6.3-2.9-6.3-6.5C128.6,54.7,131.2,51.8,134.8,51.8z
			 M134.9,63.5c2.9,0,4.9-2.3,4.9-5.2s-2-5.2-4.9-5.2s-5,2.3-5,5.2S131.9,63.5,134.9,63.5z"/>
		<path class="st0" d="M148.8,64.6V52h4.6c2.6,0,4.4,1,4.4,3.3c0,1.1-0.6,2.2-1.6,2.7c1.2,0.6,1.9,1.8,1.9,3c0,2.2-1.7,3.6-4.3,3.6
			H148.8L148.8,64.6z M150.2,53.3v4.2h3.5c1.5,0,2.7-0.7,2.7-2.2s-1.2-2.1-2.7-2.1L150.2,53.3L150.2,53.3z M150.2,63.3h3.8
			c1.6,0,2.8-0.7,2.8-2.3c0-1.5-1.2-2.2-2.7-2.2h-3.8L150.2,63.3L150.2,63.3L150.2,63.3z"/>
		<path class="st0" d="M166.1,64.6V52h1.4v12.6C167.4,64.6,166.1,64.6,166.1,64.6z"/>
		<path class="st0" d="M175.7,64.6V52h1.4v11.3h6.1v1.3H175.7L175.7,64.6z"/>
		<path class="st0" d="M190.8,64.6V52h1.4v12.6C192.1,64.6,190.8,64.6,190.8,64.6z"/>
		<path class="st0" d="M200.4,64.6V52h8.3v1.3h-6.9v4.2h6.7v1.3h-6.7v4.5h6.9v1.3H200.4L200.4,64.6z"/>
		<path class="st0" d="M224.5,64.6l-3.3-4.7h-3v4.7h-1.4V52h4.4c2.8,0,4.6,1.6,4.6,4c0,2-1.1,3.3-3.1,3.8l3.4,4.8H224.5L224.5,64.6z
			 M218.2,53.3v5.4h3.2c1.8,0,3-0.9,3-2.7s-1.2-2.7-3-2.7H218.2z"/>
	</g>
</g>
</svg>